<?xml version="1.0" standalone="no"?>
<!DOCTYPE svg PUBLIC "-//W3C//DTD SVG 20010904//EN"
 "http://www.w3.org/TR/2001/REC-SVG-20010904/DTD/svg10.dtd">
<svg version="1.0" xmlns="http://www.w3.org/2000/svg"
 width="75.000000pt" height="75.000000pt" viewBox="0 0 75.000000 75.000000"
 preserveAspectRatio="xMidYMid meet">

<g transform="translate(0.000000,75.000000) scale(0.100000,-0.100000)"
fill="#000000" stroke="none">
<path d="M272 698 c-7 -7 -12 -20 -12 -30 0 -16 -10 -18 -90 -18 -71 0 -99 -4
-130 -20 -22 -11 -40 -25 -40 -31 0 -20 91 -49 155 -49 53 0 65 -3 69 -18 4
-11 17 -29 30 -41 20 -18 23 -29 19 -65 -3 -24 -1 -46 3 -49 5 -3 8 -40 6 -84
l-3 -79 -67 4 c-79 4 -142 -8 -153 -28 -4 -8 -15 -31 -23 -50 -9 -19 -22 -42
-28 -52 -9 -13 -9 -20 1 -32 12 -14 54 -16 369 -14 321 3 356 5 365 20 9 13 7
21 -6 36 -9 10 -17 26 -17 35 0 9 -4 17 -10 17 -5 0 -10 11 -10 25 0 32 -28
40 -143 40 l-87 0 0 28 c0 15 -4 27 -10 27 -5 0 -10 -15 -10 -32 0 -28 -6 -36
-38 -53 -37 -21 -38 -21 -70 -2 l-32 19 0 89 0 90 68 -3 67 -3 3 -32 c4 -44
22 -42 22 1 0 19 5 38 10 41 13 8 13 51 -1 73 -8 12 -6 27 5 55 l16 37 109 0
c116 0 141 9 141 50 0 41 -25 50 -139 50 -85 0 -111 3 -121 15 -7 9 -20 15
-29 14 -9 -1 -23 1 -31 4 -14 6 -125 27 -140 27 -3 0 -11 -5 -18 -12z m65 -30
c7 17 33 15 33 -3 0 -17 16 -20 25 -5 10 17 22 11 29 -12 4 -18 8 -20 18 -10
40 40 51 -29 21 -125 l-17 -53 -70 1 c-71 0 -71 0 -104 41 -32 40 -32 41 -12
55 16 11 20 25 20 68 0 57 15 75 39 46 10 -12 15 -13 18 -3z m-77 -48 c0 -5
-13 -10 -30 -10 -16 0 -30 -4 -30 -10 0 -5 14 -10 31 -10 17 0 28 -4 24 -10
-3 -5 -37 -10 -76 -10 -39 0 -69 4 -69 10 0 6 11 10 24 10 14 0 28 5 31 10 4
6 -7 10 -24 10 -17 0 -31 5 -31 10 0 6 32 10 75 10 43 0 75 -4 75 -10z m355 0
c-3 -5 -31 -10 -61 -10 -30 0 -54 5 -54 10 0 6 27 10 61 10 37 0 58 -4 54 -10z
m45 -20 c0 -16 -4 -30 -10 -30 -5 0 -10 14 -10 30 0 17 5 30 10 30 6 0 10 -13
10 -30z m67 14 c7 -19 -20 -49 -36 -40 -6 4 -11 18 -11 32 0 17 5 24 20 24 11
0 23 -7 27 -16z m-637 -14 c0 -22 -16 -26 -40 -10 -13 9 -13 11 0 20 24 16 40
12 40 -10z m525 -20 c-3 -5 -31 -10 -61 -10 -30 0 -54 5 -54 10 0 6 27 10 61
10 37 0 58 -4 54 -10z m-145 -160 c0 -19 -7 -20 -90 -20 -83 0 -90 1 -90 20 0
19 7 20 90 20 83 0 90 -1 90 -20z m-152 -249 c39 -20 58 -38 50 -46 -2 -3 -24
6 -49 18 -37 18 -61 22 -146 22 -64 0 -102 4 -100 10 10 30 183 27 245 -4z
m316 21 c76 -14 48 -27 -56 -27 -88 0 -109 -3 -145 -23 -35 -18 -43 -19 -43
-8 0 43 141 76 244 58z m-334 -65 c34 -15 30 -15 -107 -16 -88 -1 -143 3 -143
9 0 5 12 12 28 16 15 3 32 8 37 10 23 9 153 -4 185 -19z m363 12 c71 -20 38
-29 -103 -29 -77 0 -140 2 -140 5 0 2 21 11 48 19 56 17 143 20 195 5z m60
-64 c2 -10 -665 -20 -691 -10 -7 3 -10 9 -7 15 9 14 694 9 698 -5z"/>
</g>
</svg>
