<?xml version="1.0" standalone="no"?>
<!DOCTYPE svg PUBLIC "-//W3C//DTD SVG 20010904//EN"
 "http://www.w3.org/TR/2001/REC-SVG-20010904/DTD/svg10.dtd">
<svg version="1.0" xmlns="http://www.w3.org/2000/svg"
 width="75.000000pt" height="75.000000pt" viewBox="0 0 75.000000 75.000000"
 preserveAspectRatio="xMidYMid meet">

<g transform="translate(0.000000,75.000000) scale(0.100000,-0.100000)"
fill="#000000" stroke="none">
<path d="M513 735 c-41 -18 -73 -69 -73 -118 0 -46 13 -73 51 -109 23 -21 29
-36 29 -67 0 -23 -4 -41 -10 -41 -5 0 -10 -7 -10 -15 0 -8 5 -15 10 -15 13 0
13 -37 0 -45 -6 -4 -18 -1 -26 6 -13 10 -20 7 -46 -19 -26 -26 -29 -33 -19
-46 19 -23 4 -36 -40 -36 l-39 0 0 150 c0 127 2 152 15 157 22 8 30 -4 15 -22
-16 -19 2 -20 30 -2 29 17 46 -10 23 -35 -14 -16 -13 -20 17 -48 38 -35 49
-32 30 7 -7 16 -13 41 -14 57 -1 24 -9 34 -45 54 -35 19 -48 22 -67 13 -31
-14 -36 -47 -32 -211 l3 -135 61 -3 c56 -3 61 -1 71 21 7 16 8 28 2 34 -6 6
-2 16 10 27 12 11 21 14 26 7 4 -8 15 -6 34 4 23 11 27 19 24 40 -5 22 -2 25
21 25 21 0 26 -5 26 -25 0 -27 53 -64 65 -44 12 18 35 -11 29 -37 -4 -17 1
-30 20 -47 32 -30 33 -43 4 -67 -15 -12 -22 -29 -23 -51 0 -32 -2 -34 -34 -34
-22 -1 -39 -8 -51 -23 -23 -28 -44 -28 -62 -1 -8 13 -25 22 -45 23 -36 2 -62
19 -44 30 8 5 6 16 -4 37 -15 28 -18 29 -85 29 l-70 0 0 188 c0 178 -1 190
-21 207 -20 19 -21 18 -67 -6 -40 -21 -47 -30 -48 -55 0 -17 -8 -41 -17 -54
-21 -30 -21 -40 -2 -40 8 0 15 6 15 14 0 7 10 20 21 28 19 12 20 16 8 36 -19
30 2 53 31 34 28 -17 32 -15 25 9 -6 17 -3 20 12 17 17 -3 18 -18 21 -206 l2
-202 75 0 c74 0 96 -10 76 -34 -15 -18 50 -81 66 -65 13 13 33 4 33 -17 0 -10
12 -14 44 -14 34 0 47 5 59 22 12 19 18 21 28 10 11 -10 19 -6 46 20 27 26 30
34 20 46 -9 12 -8 18 11 30 17 11 22 24 22 58 0 32 -4 44 -14 44 -21 0 -30 18
-17 34 15 18 -50 81 -66 65 -6 -6 -16 -8 -22 -5 -14 9 -14 46 -1 46 6 0 10 7
10 15 0 8 -4 15 -10 15 -5 0 -10 18 -10 40 0 28 7 46 23 62 40 40 57 72 57
113 0 52 -31 102 -75 121 -43 17 -71 17 -112 -1z m117 -34 c60 -43 63 -112 6
-170 -18 -20 -37 -46 -41 -58 -9 -31 -55 -32 -55 -2 0 12 -18 41 -40 65 -45
49 -52 92 -23 134 40 59 97 70 153 31z m-40 -291 c0 -5 -11 -10 -25 -10 -14 0
-25 5 -25 10 0 6 11 10 25 10 14 0 25 -4 25 -10z"/>
<path d="M560 680 c0 -22 -10 -26 -27 -9 -20 20 -36 -1 -18 -21 16 -17 15 -19
-5 -22 -27 -4 -27 -22 0 -26 20 -3 21 -5 5 -22 -18 -20 -2 -41 18 -21 17 17
27 13 27 -9 0 -11 5 -20 10 -20 6 0 10 9 10 20 0 22 10 26 27 9 20 -20 36 1
17 22 -16 18 -16 19 4 19 13 0 22 6 22 15 0 8 -9 15 -20 15 -24 0 -26 15 -3
24 12 5 14 9 5 18 -9 9 -15 9 -24 0 -18 -18 -28 -15 -28 8 0 11 -4 20 -10 20
-5 0 -10 -9 -10 -20z m27 -56 c3 -8 1 -20 -5 -26 -15 -15 -43 8 -35 28 7 19
32 18 40 -2z"/>
<path d="M201 607 c-49 -16 -99 -69 -107 -114 -4 -21 -26 -80 -50 -132 -24
-51 -41 -97 -38 -102 3 -5 22 -9 42 -9 l37 0 0 -72 0 -73 68 -3 67 -3 0 -49
c0 -28 5 -50 10 -50 6 0 10 27 10 60 l0 60 -65 0 -64 0 -3 78 -3 77 -37 3 -38
3 40 79 c22 44 40 90 40 102 0 31 33 83 67 105 15 10 52 20 83 23 30 3 55 10
55 15 0 14 -73 16 -114 2z"/>
<path d="M203 424 c-27 -29 -28 -34 -9 -34 19 0 46 27 46 46 0 20 -11 16 -37
-12z"/>
<path d="M366 442 c-8 -13 23 -52 40 -52 19 0 17 10 -5 38 -21 24 -27 26 -35
14z"/>
<path d="M518 274 c-30 -16 -58 -61 -58 -94 0 -53 57 -110 110 -110 53 0 110
57 110 110 0 34 -28 78 -60 95 -36 19 -67 19 -102 -1z m110 -37 c15 -14 22
-32 22 -56 0 -97 -130 -112 -163 -19 -11 31 13 79 47 94 36 15 62 10 94 -19z"/>
<path d="M527 222 c-10 -10 -17 -28 -17 -40 0 -28 34 -62 60 -62 25 0 60 34
60 58 0 53 -68 82 -103 44z m67 -18 c22 -21 4 -54 -29 -54 -14 0 -25 2 -25 4
0 2 -3 11 -6 19 -5 14 20 47 36 47 5 0 16 -7 24 -16z"/>
</g>
</svg>
