<?xml version="1.0" standalone="no"?>
<!DOCTYPE svg PUBLIC "-//W3C//DTD SVG 20010904//EN"
 "http://www.w3.org/TR/2001/REC-SVG-20010904/DTD/svg10.dtd">
<svg version="1.0" xmlns="http://www.w3.org/2000/svg"
 width="75.000000pt" height="75.000000pt" viewBox="0 0 75.000000 75.000000"
 preserveAspectRatio="xMidYMid meet">

<g transform="translate(0.000000,75.000000) scale(0.100000,-0.100000)"
fill="#000000" stroke="none">
<path d="M370 723 c-35 -12 -40 -35 -40 -171 0 -73 5 -142 10 -152 7 -13 26
-21 60 -26 49 -6 50 -7 50 -42 l0 -36 39 38 c39 38 40 38 121 40 116 2 120 8
120 178 0 124 -1 130 -25 153 -23 24 -28 25 -172 24 -81 0 -155 -3 -163 -6z
m325 -173 l0 -145 -85 -3 c-75 -3 -88 -6 -112 -29 l-26 -25 -4 23 c-3 21 -9
24 -48 27 -24 2 -50 8 -57 14 -18 14 -18 259 -1 276 9 9 57 12 173 10 l160 -3
0 -145z"/>
<path d="M499 664 c-17 -21 0 -49 32 -49 18 0 25 6 27 24 6 38 -34 55 -59 25z
m41 -25 c0 -5 -4 -9 -10 -9 -5 0 -10 7 -10 16 0 8 5 12 10 9 6 -3 10 -10 10
-16z"/>
<path d="M498 579 c-14 -8 -18 -24 -18 -74 0 -37 -4 -65 -10 -65 -5 0 -10 -4
-10 -10 0 -6 28 -10 65 -10 61 0 84 11 50 24 -22 8 -21 116 1 116 9 0 14 6 12
13 -6 15 -67 20 -90 6z m42 -80 c0 -52 -2 -60 -17 -57 -13 2 -19 15 -21 47 -4
52 2 71 23 71 12 0 15 -13 15 -61z"/>
<path d="M165 388 c-72 -27 -134 -53 -138 -57 -4 -4 15 -17 43 -29 l50 -21 0
-131 0 -130 198 2 197 3 3 131 c2 115 5 132 20 137 9 2 25 8 35 12 15 6 17 -1
17 -73 0 -56 -4 -83 -14 -91 -8 -7 -14 -26 -14 -44 -1 -18 -2 -41 -4 -52 -3
-18 3 -20 42 -20 35 0 44 3 41 15 -2 8 -6 34 -9 58 -2 23 -9 45 -13 48 -5 3
-9 47 -9 97 l0 93 -31 11 c-36 14 -62 6 -34 -10 14 -8 -4 -18 -96 -53 -63 -24
-121 -44 -129 -44 -27 0 -241 83 -233 90 4 4 53 24 108 45 55 20 104 40 108
45 24 23 -21 13 -138 -32z m73 -149 l80 -30 79 30 c43 17 81 31 86 31 4 0 7
-49 7 -110 l0 -110 -175 0 -175 0 0 110 c0 61 4 110 9 110 5 0 45 -14 89 -31z
m372 -124 c0 -8 -4 -15 -10 -15 -5 0 -10 7 -10 15 0 8 5 15 10 15 6 0 10 -7
10 -15z m3 -45 c4 -15 0 -20 -13 -20 -13 0 -17 5 -13 20 3 11 9 20 13 20 4 0
10 -9 13 -20z"/>
<path d="M165 220 c3 -5 10 -10 16 -10 5 0 9 5 9 10 0 6 -7 10 -16 10 -8 0
-12 -4 -9 -10z"/>
<path d="M167 183 c-4 -3 -7 -30 -7 -60 0 -40 4 -53 15 -53 12 0 15 13 15 60
0 55 -6 70 -23 53z"/>
<path d="M290 344 c-15 -17 -7 -42 16 -51 10 -4 26 6 45 26 16 18 29 34 29 35
0 11 -81 2 -90 -10z m40 -14 c0 -5 -4 -10 -10 -10 -5 0 -10 5 -10 10 0 6 5 10
10 10 6 0 10 -4 10 -10z"/>
</g>
</svg>
