<?xml version="1.0" encoding="UTF-8"?>
<!DOCTYPE svg PUBLIC "-//W3C//DTD SVG 1.1//EN" "http://www.w3.org/Graphics/SVG/1.1/DTD/svg11.dtd">
<svg xmlns="http://www.w3.org/2000/svg" version="1.1" width="512px" height="512px" style="shape-rendering:geometricPrecision; text-rendering:geometricPrecision; image-rendering:optimizeQuality; fill-rule:evenodd; clip-rule:evenodd" xmlns:xlink="http://www.w3.org/1999/xlink">
<g><path style="opacity:0.987" fill="#000000" d="M 232.5,-0.5 C 247.833,-0.5 263.167,-0.5 278.5,-0.5C 368.144,10.3879 435.644,54.7213 481,132.5C 497.695,163.971 507.861,197.304 511.5,232.5C 511.5,247.833 511.5,263.167 511.5,278.5C 500.612,368.144 456.279,435.644 378.5,481C 347.029,497.695 313.696,507.861 278.5,511.5C 263.167,511.5 247.833,511.5 232.5,511.5C 142.856,500.612 75.3562,456.279 30,378.5C 13.3053,347.029 3.1386,313.696 -0.5,278.5C -0.5,263.167 -0.5,247.833 -0.5,232.5C 10.3875,142.857 54.7208,75.3573 132.5,30C 163.971,13.3053 197.304,3.1386 232.5,-0.5 Z M 118.5,82.5 C 146.08,82.9185 161.413,96.7518 164.5,124C 162.169,148.665 148.669,162.498 124,165.5C 98.7888,162.955 84.9554,149.122 82.5,124C 84.389,101.284 96.389,87.4509 118.5,82.5 Z M 342.5,191.5 C 359.69,191.572 376.023,195.405 391.5,203C 410.59,215.641 421.756,233.475 425,256.5C 426.562,264.766 427.562,273.099 428,281.5C 428.5,330.499 428.667,379.499 428.5,428.5C 404.833,428.5 381.167,428.5 357.5,428.5C 357.96,381.14 357.46,333.807 356,286.5C 353.03,265.274 340.863,254.608 319.5,254.5C 295.787,254.375 281.954,266.042 278,289.5C 276.536,335.804 276.036,382.137 276.5,428.5C 252.833,428.5 229.167,428.5 205.5,428.5C 205.5,351.5 205.5,274.5 205.5,197.5C 228.167,197.5 250.833,197.5 273.5,197.5C 273.168,208.187 273.501,218.854 274.5,229.5C 290.425,204.869 313.091,192.202 342.5,191.5 Z M 88.5,197.5 C 112.167,197.5 135.833,197.5 159.5,197.5C 159.5,274.5 159.5,351.5 159.5,428.5C 135.833,428.5 112.167,428.5 88.5,428.5C 88.5,351.5 88.5,274.5 88.5,197.5 Z"/></g>
</svg>
