<?xml version="1.0" standalone="no"?>
<!DOCTYPE svg PUBLIC "-//W3C//DTD SVG 20010904//EN"
 "http://www.w3.org/TR/2001/REC-SVG-20010904/DTD/svg10.dtd">
<svg version="1.0" xmlns="http://www.w3.org/2000/svg"
 width="75.000000pt" height="75.000000pt" viewBox="0 0 75.000000 75.000000"
 preserveAspectRatio="xMidYMid meet">

<g transform="translate(0.000000,75.000000) scale(0.100000,-0.100000)"
fill="#000000" stroke="none">
<path d="M320 741 c-110 -34 -180 -128 -180 -242 0 -49 20 -98 73 -181 21 -31
37 -59 37 -61 0 -2 -24 -9 -54 -16 -64 -14 -114 -45 -136 -84 -49 -88 128
-164 355 -154 119 6 192 23 246 60 28 19 35 30 37 64 3 35 -1 44 -28 66 -28
24 -114 57 -147 57 -19 0 -17 5 24 68 73 115 87 176 61 266 -18 60 -100 139
-160 154 -52 13 -91 14 -128 3z m174 -75 c70 -53 100 -138 76 -211 -13 -41
-178 -305 -190 -305 -10 0 -171 254 -187 294 -24 63 -9 137 37 190 46 52 85
67 161 64 55 -3 73 -9 103 -32z m-169 -521 c22 -36 46 -65 55 -65 8 0 33 29
55 65 28 45 46 64 61 65 37 0 123 -30 151 -54 28 -24 28 -24 9 -45 -77 -84
-453 -87 -542 -4 l-27 25 21 20 c22 23 113 57 152 58 20 0 33 -13 65 -65z"/>
<path d="M332 603 c-38 -19 -62 -58 -62 -104 0 -22 10 -41 34 -65 28 -28 42
-34 76 -34 34 0 48 6 76 34 55 55 41 136 -30 170 -42 20 -52 20 -94 -1z m97
-59 c12 -15 21 -33 21 -41 0 -21 -46 -63 -70 -63 -24 0 -70 42 -70 63 0 28 41
67 70 67 19 0 36 -9 49 -26z"/>
</g>
</svg>
