<?xml version="1.0" standalone="no"?>
<!DOCTYPE svg PUBLIC "-//W3C//DTD SVG 20010904//EN"
 "http://www.w3.org/TR/2001/REC-SVG-20010904/DTD/svg10.dtd">
<svg version="1.0" xmlns="http://www.w3.org/2000/svg"
 width="75.000000pt" height="75.000000pt" viewBox="0 0 75.000000 75.000000"
 preserveAspectRatio="xMidYMid meet">

<g transform="translate(0.000000,75.000000) scale(0.100000,-0.100000)"
fill="#000000" stroke="none">
<path d="M187 682 l-177 -65 2 -235 3 -235 180 -74 180 -73 140 56 c77 31 160
65 185 75 l45 19 0 232 0 232 -180 67 c-99 37 -184 67 -190 67 -5 0 -90 -30
-188 -66z m346 -18 c87 -32 154 -61 150 -65 -4 -4 -75 -34 -157 -67 l-149 -59
-136 55 c-75 30 -147 59 -161 64 -22 9 -8 16 130 68 85 32 157 59 160 59 3 1
76 -24 163 -55z m-175 -418 c1 -113 1 -206 -1 -206 -1 0 -74 28 -160 63 l-158
63 0 202 c0 111 1 204 1 206 0 2 71 -24 158 -59 l157 -63 3 -206z m360 127
l-3 -207 -144 -58 c-79 -32 -153 -60 -163 -64 -18 -5 -18 4 -16 201 l3 207
155 63 c85 35 158 64 163 64 4 1 6 -92 5 -206z"/>
<path d="M233 624 c-21 -9 -15 -31 9 -37 24 -7 70 12 72 28 1 11 -61 17 -81 9z"/>
<path d="M414 605 c-16 -13 -17 -16 -4 -25 32 -21 102 2 86 28 -10 17 -59 15
-82 -3z"/>
<path d="M73 474 c-12 -33 40 -82 57 -54 14 21 12 28 -10 50 -24 24 -39 25
-47 4z"/>
<path d="M264 396 c-8 -21 14 -56 36 -56 28 0 34 18 16 45 -18 28 -44 33 -52
11z"/>
<path d="M165 330 c-10 -16 24 -62 43 -58 21 4 28 34 12 53 -14 17 -46 20 -55
5z"/>
<path d="M73 274 c-12 -33 40 -82 57 -54 14 21 12 28 -10 50 -24 24 -39 25
-47 4z"/>
<path d="M264 196 c-8 -21 14 -56 36 -56 28 0 34 18 16 45 -18 28 -44 33 -52
11z"/>
<path d="M543 338 c-18 -24 -22 -46 -10 -63 25 -33 70 17 53 60 -7 18 -30 20
-43 3z"/>
</g>
</svg>
