<?xml version="1.0" standalone="no"?>
<!DOCTYPE svg PUBLIC "-//W3C//DTD SVG 20010904//EN"
 "http://www.w3.org/TR/2001/REC-SVG-20010904/DTD/svg10.dtd">
<svg version="1.0" xmlns="http://www.w3.org/2000/svg"
 width="75.000000pt" height="75.000000pt" viewBox="0 0 75.000000 75.000000"
 preserveAspectRatio="xMidYMid meet">

<g transform="translate(0.000000,75.000000) scale(0.100000,-0.100000)"
fill="#000000" stroke="none">
<path d="M292 730 c-103 -22 -211 -112 -260 -218 -22 -47 -26 -71 -26 -143 0
-77 3 -93 32 -151 84 -170 268 -254 439 -200 240 76 337 352 197 559 -41 60
-83 95 -158 129 -61 28 -157 38 -224 24z m133 -176 c93 -44 80 -201 -19 -234
-46 -15 -80 -4 -116 36 -51 59 -52 129 -2 176 44 42 83 48 137 22z m69 -324
c42 -18 96 -62 96 -78 0 -15 -72 -61 -123 -78 -93 -32 -220 -7 -296 56 -23 20
-23 21 -5 41 75 83 215 108 328 59z"/>
</g>
</svg>
